<svg xmlns="http://www.w3.org/2000/svg" width="283" height="44" viewBox="0 0 283 44">
    <g fill="#1E201E" fill-rule="evenodd">
        <path d="M272.659 31.122c1.113 0 2.045-.299 2.797-.896a6.568 6.568 0 0 0 1.802-2.247c.449-.901.766-1.885.952-2.953.185-1.067.278-2.081.278-3.04 0-.921-.087-1.916-.263-2.983a10.536 10.536 0 0 0-.938-2.967 6.327 6.327 0 0 0-1.845-2.262c-.782-.597-1.768-.896-2.96-.896-1.132 0-2.069.294-2.811.882a6.336 6.336 0 0 0-1.772 2.232c-.44.9-.752 1.885-.938 2.953a17.799 17.799 0 0 0-.278 3.04c0 .92.088 1.915.264 2.982.175 1.068.483 2.057.922 2.968.44.91 1.045 1.669 1.817 2.276.771.608 1.762.911 2.973.911zm-.297-19.317c1.469 0 2.813.254 4.033.762a9.058 9.058 0 0 1 3.126 2.127c.862.91 1.532 1.985 2.009 3.227.476 1.243.714 2.607.714 4.094 0 1.388-.238 2.699-.714 3.93a9.892 9.892 0 0 1-2.025 3.243 9.53 9.53 0 0 1-3.14 2.2c-1.22.538-2.585.807-4.092.807-1.39 0-2.684-.24-3.885-.719a9.36 9.36 0 0 1-3.14-2.039c-.893-.88-1.593-1.936-2.099-3.169-.506-1.232-.759-2.6-.759-4.107 0-1.467.239-2.831.715-4.092a9.786 9.786 0 0 1 2.024-3.286 9.311 9.311 0 0 1 3.155-2.186c1.23-.529 2.59-.792 4.078-.792zm-27.68 1.466a12.85 12.85 0 0 1-.798.029 1.74 1.74 0 0 0-.62.1.912.912 0 0 0-.43.335c-.109.155-.172.387-.192.696v15.646c.02.309.083.541.192.696a.907.907 0 0 0 .43.334c.177.068.384.106.62.116.237.01.503.024.799.044v.928h-7.662v-.928c.296-.02.568-.035.814-.044.246-.01.458-.048.636-.116a.829.829 0 0 0 .414-.334c.099-.155.168-.387.208-.696V14.199h-.06l-6.138 17.068h-1.864l-6.226-17.445h-.06v16.255c.02.309.084.541.192.696a.907.907 0 0 0 .43.334c.177.068.384.106.62.116.238.01.503.024.8.044v.928h-5.177v-.928c.29-.02.552-.035.789-.044.23-.01.433-.048.61-.116a.832.832 0 0 0 .41-.334c.094-.155.163-.387.202-.696V14.43c-.04-.309-.108-.541-.202-.696a.837.837 0 0 0-.41-.334 1.702 1.702 0 0 0-.61-.101c-.237 0-.498-.01-.79-.03v-.929h6.124l5.443 15.21 5.443-15.21h6.064v.93zm-41.316 0c-.291.018-.553.029-.786.029-.233 0-.437.033-.612.1a.9.9 0 0 0-.422.335c-.106.155-.17.387-.189.696v15.646c.02.309.083.541.189.696a.895.895 0 0 0 .422.334c.175.068.379.106.612.116.233.01.495.024.786.044v.928h-7.512v-.928c.286-.02.549-.035.79-.044.239-.01.442-.048.617-.116a.822.822 0 0 0 .403-.334c.092-.155.16-.387.2-.696V14.43c-.04-.309-.108-.541-.2-.696a.826.826 0 0 0-.403-.334 1.698 1.698 0 0 0-.616-.101c-.242 0-.505-.01-.791-.03v-.929h7.512v.93zM164.91 31.267c.298-.02.566-.035.805-.044.238-.01.446-.044.625-.102a.754.754 0 0 0 .418-.319c.1-.155.17-.387.208-.697v-16.66h-1.729c-1.828 0-3.06.27-3.696.813-.656.56-1.073 1.634-1.251 3.221h-.925l.567-5.138h17.647l.566 5.138h-.924c-.179-1.587-.586-2.661-1.223-3.221-.635-.543-1.877-.814-3.726-.814h-1.728v16.661c.02.31.084.542.193.697.11.155.254.261.433.32.179.057.387.09.626.101.238.01.506.024.805.044v.928h-7.691v-.928zm-29.72-11.045c.82.313 1.617.635 2.396.972a9.51 9.51 0 0 1 2.065 1.187 5.598 5.598 0 0 1 1.453 1.64c.369.64.554 1.417.554 2.334 0 .977-.205 1.836-.615 2.568a5.555 5.555 0 0 1-1.616 1.822 7.385 7.385 0 0 1-2.275 1.084 9.21 9.21 0 0 1-2.56.366 8.983 8.983 0 0 1-2.964-.498 5.143 5.143 0 0 1-1.063-.527c-.369-.235-.694-.381-.973-.44a.6.6 0 0 0-.404.074.898.898 0 0 0-.284.292c-.08.127-.135.269-.165.425-.03.156-.055.293-.075.41h-.928l.03-6.972h1.048c.12.859.3 1.665.539 2.417.239.751.579 1.401 1.018 1.948.439.547.982.976 1.63 1.289.65.313 1.423.469 2.322.469a4.73 4.73 0 0 0 1.556-.25c.48-.165.899-.4 1.257-.702.36-.303.64-.67.838-1.1.2-.429.3-.917.3-1.463 0-.626-.145-1.158-.434-1.598-.29-.439-.659-.805-1.107-1.098a7.803 7.803 0 0 0-1.482-.748 34.943 34.943 0 0 0-1.527-.542 30.98 30.98 0 0 1-2.26-.893 8.311 8.311 0 0 1-1.931-1.172 5.263 5.263 0 0 1-1.333-1.625c-.33-.626-.494-1.388-.494-2.285 0-.977.18-1.832.539-2.565a5.1 5.1 0 0 1 1.467-1.816 6.339 6.339 0 0 1 2.14-1.069 9.047 9.047 0 0 1 2.53-.351 9.72 9.72 0 0 1 2.425.292c.759.196 1.477.48 2.156.85.12.059.234.064.344.014a.974.974 0 0 0 .315-.234c.1-.107.184-.225.254-.351.07-.127.125-.23.165-.308h.957l-.059 6.475h-1.048c-.1-.82-.255-1.572-.464-2.256a5.425 5.425 0 0 0-.899-1.773 4.033 4.033 0 0 0-1.48-1.171c-.6-.284-1.329-.425-2.187-.425a4.36 4.36 0 0 0-1.497.25c-.459.165-.863.399-1.212.702a3.27 3.27 0 0 0-.824 1.103c-.199.43-.299.899-.299 1.406 0 .586.13 1.084.39 1.5.259.41.589.761.987 1.054a6.46 6.46 0 0 0 1.332.747c.49.205.974.387 1.452.542zm-25.728 6.003l-.378 5.97H92.829v-.927c.292-.02.554-.034.787-.044.233-.009.437-.048.611-.115a.819.819 0 0 0 .409-.334c.097-.154.165-.386.204-.695V14.428c-.04-.308-.107-.54-.204-.695a.747.747 0 0 0-.409-.319 2.24 2.24 0 0 0-.611-.102 33.62 33.62 0 0 1-.787-.043v-.928h15.149c.039.87.083 1.725.13 2.566.05.84.102 1.696.161 2.565h-.903c-.175-1.585-.573-2.658-1.194-3.217-.66-.56-1.874-.841-3.642-.841h-4.195v7.884h3.292c.33 0 .588-.03.772-.087a.72.72 0 0 0 .408-.29c.087-.136.15-.31.19-.522.038-.213.087-.464.145-.754l.291-1.448h.67v7.274h-.67l-.291-1.275c-.058-.29-.111-.541-.16-.753a1.611 1.611 0 0 0-.204-.522.715.715 0 0 0-.393-.29c-.175-.058-.427-.087-.758-.087h-3.292v8.55h6.467c.68 0 1.239-.14 1.676-.42.437-.28.786-.653 1.048-1.116a5.57 5.57 0 0 0 .583-1.565c.126-.58.219-1.169.276-1.768h1.078zm-47.577 5.042c.298-.02.567-.035.805-.044.238-.01.448-.044.626-.102a.754.754 0 0 0 .417-.319c.1-.155.17-.387.209-.697v-16.66h-1.729c-1.828 0-3.06.27-3.696.813-.656.56-1.073 1.634-1.252 3.221h-.925l.567-5.138h17.647l.567 5.138h-.925c-.178-1.587-.586-2.661-1.222-3.221-.635-.543-1.878-.814-3.726-.814H67.52v16.661c.019.31.083.542.193.697.11.155.253.261.432.32.18.057.388.09.626.101.238.01.507.024.805.044v.928h-7.69v-.928zM6.899 5.897l.209-.017c3.3-.257 6.686-.515 9.987-.772 1.047-1.72 2.11-3.423 3.22-5.09C15.141.355 10.46 2.527 6.9 5.898zM2.746 32.702c1.66-4.484 3.9-8.7 6.14-12.846 2.284-4.116 4.485-8.403 6.94-12.519-3.684.258-7.368.563-11.052.881A22.095 22.095 0 0 0 0 21.985c0 3.89.998 7.545 2.746 10.717zm40.47-7.39C41.635 35.891 32.618 44 21.733 44c-4.51 0-8.7-1.392-12.172-3.775.403-.523.795-1.058 1.187-1.592 5.77-7.858 8.74-13.14 17.201-23.07.744-.874 1.696-1.807 2.505-2.232l.168-.017c.034.341-.102.7-.229 1.143-.508 1.774-1.277 3.487-1.961 5.192-.753 1.885-1.514 3.684-2.274 5.483a104.591 104.591 0 0 1-5.389 10.187c-.228.281-.195.622-.086.87.11.248.21.41.395.564.261.06.522.12.683.018a.766.766 0 0 0 .564-.315c.076-.094.236-.196.312-.29l6.642-8.675c.236-.195.463-.477.7-.672.523-.742 1.13-1.492 1.754-2.07 0 0 .228-.282.54-.572.085-.008.085-.008.16-.102.549-.485 1.434-1.004 1.964-.799l-.084.009c.353.137.387.478.403.649.017.17-.05.35-.119.528-.059.265-.11.615-.17.879-.067.179-.219.367-.202.537-.474 1.254-1.124 2.438-1.774 3.623-.499.998-1.545 2.48-1.093 3.642.11.247.295.401.48.555.933.855 2.687-.354 3.707-1.231.624-.58 1.333-1.167 1.797-1.644.151-.188.303-.375.464-.477 1.73-1.74 3.586-3.375 5.412-5.035zM36.06 5.433a22.084 22.084 0 0 1 7.397 17.08c-.255.04-.491.17-.68.357-1.865 1.823-3.905 3.578-5.854 5.409l-3.028 2.973c1.15-2.183 2.534-4.56 2.799-7.086.22-1.228-.072-2.491-1.31-2.97-1.321-.472-2.796.106-3.816.983-1.113.8-1.948 1.831-2.792 2.777l-.683.843c.701-1.534 1.318-3.06 2.02-4.595.473-1.253 1.023-2.6 1.496-3.854.482-1.168.955-2.422 1.1-3.556.196-1.484-.434-2.714-1.958-2.648-1.187.032-2.444 1.105-3.212 1.957-.784.682-1.392 1.432-2 2.181-.767.852-1.633 1.78-2.294 2.642-3.95 5.155-7.54 10.592-11.645 15.937a93.137 93.137 0 0 1-2.884 3.912c-.292.373-.583.755-.879 1.136a22.034 22.034 0 0 1-3.646-3.93 53.728 53.728 0 0 1 1.816-4.751c2.116-4.716 4.655-9.175 7.11-13.72a335.875 335.875 0 0 1 5.248-9.43c5.416-.43 10.833-.772 16.25-1.458a80.22 80.22 0 0 0 1.445-.19zm6.165 16.309h-.274v-.33c0-.123-.044-.167-.188-.167h-.252v.497h-.282V20.47h.642c.238 0 .383.146.383.365 0 .161-.072.249-.173.293.1.044.144.102.144.248v.366zm-.39-1.038c.116 0 .166.058.166.16 0 .096-.05.154-.173.154h-.317v-.314h.324zm1.01.468c0 .643-.512 1.162-1.147 1.162a1.159 1.159 0 0 1-1.154-1.162c0-.644.52-1.163 1.154-1.163.635 0 1.147.52 1.147 1.163zm.238 0c0-.775-.62-1.404-1.385-1.404s-1.378.629-1.378 1.404c0 .774.613 1.395 1.378 1.395.765 0 1.385-.62 1.385-1.395zM22.873 0c3.976.209 7.669 1.5 10.798 3.589-3.235.374-6.492.617-9.72.919-1.44.086-2.793.257-4.232.343A110.773 110.773 0 0 1 22.874 0z"/>
    </g>
</svg>
