<svg xmlns="http://www.w3.org/2000/svg" width="99" height="28" viewBox="0 0 99 28">
    <path fill="#1E201E" fill-rule="evenodd" d="M95.64 6.63c.373 0 .684-.099.936-.295.251-.197.452-.443.602-.74.15-.296.256-.62.318-.972.062-.35.093-.684.093-1 0-.303-.029-.63-.088-.982a3.429 3.429 0 0 0-.313-.976A2.09 2.09 0 0 0 96.57.92c-.261-.196-.591-.295-.99-.295-.378 0-.691.097-.94.29a2.091 2.091 0 0 0-.592.735c-.147.297-.251.62-.313.972a5.769 5.769 0 0 0-.093 1c0 .304.029.63.088.982.058.351.161.677.308.977.147.3.35.549.608.749.257.2.589.3.993.3zM95.63.258c.484 0 .926.084 1.328.251a2.98 2.98 0 0 1 1.028.701c.284.3.504.654.661 1.064.157.41.235.859.235 1.349 0 .457-.078.89-.235 1.295a3.26 3.26 0 0 1-.666 1.069 3.135 3.135 0 0 1-1.033.725c-.402.177-.85.266-1.347.266a3.41 3.41 0 0 1-1.278-.237 3.079 3.079 0 0 1-1.033-.672 3.1 3.1 0 0 1-.69-1.044 3.536 3.536 0 0 1-.25-1.354c0-.484.078-.933.235-1.349.157-.416.379-.776.666-1.083a3.063 3.063 0 0 1 1.038-.72A3.36 3.36 0 0 1 95.63.26zM82.51.654c-.099.007-.187.01-.265.01a.573.573 0 0 0-.206.034.302.302 0 0 0-.142.111.46.46 0 0 0-.063.232v5.212a.46.46 0 0 0 .063.232.3.3 0 0 0 .142.11.652.652 0 0 0 .206.04c.078.003.166.008.264.014v.31h-2.536v-.31c.098-.006.188-.011.27-.014a.666.666 0 0 0 .21-.04.275.275 0 0 0 .137-.11.584.584 0 0 0 .069-.232V.963h-.02L78.607 6.65h-.617L75.928.838h-.02v5.415c.007.103.029.18.064.232a.3.3 0 0 0 .142.11.652.652 0 0 0 .206.04c.078.003.166.008.264.014v.31h-1.713v-.31c.096-.006.182-.011.261-.014a.64.64 0 0 0 .202-.04.276.276 0 0 0 .136-.11.614.614 0 0 0 .067-.232V1.04a.614.614 0 0 0-.067-.232.277.277 0 0 0-.136-.111.56.56 0 0 0-.202-.034c-.079 0-.165-.003-.261-.01v-.31h2.027L78.7 5.412 80.502.345h2.007v.31zm-17.832 0c-.098.007-.186.01-.265.01a.573.573 0 0 0-.205.034.302.302 0 0 0-.142.111.463.463 0 0 0-.064.232v5.212c.007.103.028.18.064.232a.3.3 0 0 0 .142.11.652.652 0 0 0 .205.04c.079.003.167.008.265.014v.31H62.15v-.31a9.26 9.26 0 0 1 .266-.014.654.654 0 0 0 .207-.04.276.276 0 0 0 .136-.11.614.614 0 0 0 .067-.232V1.04a.614.614 0 0 0-.067-.232.277.277 0 0 0-.136-.111.576.576 0 0 0-.207-.034c-.082 0-.17-.003-.266-.01v-.31h2.527v.31zM47.913 6.65c.098-.006.186-.011.265-.014a.762.762 0 0 0 .205-.034.248.248 0 0 0 .137-.107.574.574 0 0 0 .069-.232V.712h-.568c-.6 0-1.006.09-1.214.271-.216.187-.353.545-.412 1.073h-.303l.186-1.711h5.797l.187 1.711h-.304c-.059-.528-.193-.886-.402-1.073-.208-.18-.617-.27-1.224-.27h-.568v5.55c.007.102.028.18.064.231a.272.272 0 0 0 .142.107c.059.019.127.03.206.034.078.003.166.008.264.014v.31h-2.527v-.31zM34.185 3.036c.268.103.529.21.783.32.255.11.48.24.676.392.196.152.354.332.475.542.12.21.181.467.181.77a1.723 1.723 0 0 1-.73 1.449 2.407 2.407 0 0 1-.744.358c-.277.08-.556.12-.837.12-.333 0-.656-.054-.97-.164a1.676 1.676 0 0 1-.347-.174.997.997 0 0 0-.319-.145.195.195 0 0 0-.132.024.295.295 0 0 0-.093.097.402.402 0 0 0-.053.14c-.01.052-.019.097-.025.135h-.304l.01-2.3h.343c.04.283.098.549.176.797.078.248.19.462.333.643.144.18.322.322.534.425.212.103.465.155.759.155.183 0 .352-.027.51-.082.156-.055.293-.132.41-.232.118-.1.21-.221.275-.363.065-.142.097-.303.097-.483a.944.944 0 0 0-.141-.527 1.249 1.249 0 0 0-.363-.363 2.544 2.544 0 0 0-.484-.246 11.364 11.364 0 0 0-.5-.18c-.255-.09-.501-.188-.74-.294a2.715 2.715 0 0 1-.631-.387 1.734 1.734 0 0 1-.436-.536 1.615 1.615 0 0 1-.161-.755c0-.322.058-.604.176-.846a1.68 1.68 0 0 1 .48-.6c.202-.157.436-.275.7-.352a3.153 3.153 0 0 1 1.62-.02c.249.065.484.159.706.281.039.02.076.021.112.005a.319.319 0 0 0 .103-.078.591.591 0 0 0 .084-.115l.053-.102h.314l-.02 2.137h-.343a4.348 4.348 0 0 0-.151-.745 1.796 1.796 0 0 0-.294-.585 1.321 1.321 0 0 0-.485-.386 1.65 1.65 0 0 0-.715-.14c-.176 0-.34.027-.49.082-.15.054-.282.132-.396.232a1.079 1.079 0 0 0-.367.828c0 .193.042.358.127.495.085.135.193.25.323.348.13.096.276.178.436.246.16.068.318.128.475.179zM21.65 4.976l-.127 1.992h-5.465v-.31l.265-.014a.642.642 0 0 0 .205-.038.275.275 0 0 0 .138-.112.582.582 0 0 0 .068-.232V1.041a.584.584 0 0 0-.068-.232.251.251 0 0 0-.138-.106.758.758 0 0 0-.205-.034 11.39 11.39 0 0 1-.265-.015v-.31h5.093a67.233 67.233 0 0 0 .098 1.712h-.304c-.059-.528-.193-.886-.401-1.073-.222-.187-.63-.28-1.225-.28h-1.41v2.63h1.107c.11 0 .197-.01.26-.03a.242.242 0 0 0 .136-.096.476.476 0 0 0 .064-.174l.049-.252.098-.483h.225v2.427h-.225l-.098-.426a8.571 8.571 0 0 0-.054-.25.535.535 0 0 0-.068-.175.24.24 0 0 0-.132-.096.855.855 0 0 0-.255-.03H17.91v2.853h2.174c.229 0 .417-.047.564-.14.146-.094.264-.218.352-.373.088-.154.153-.328.196-.522a4.99 4.99 0 0 0 .093-.59h.362zM1.821 6.65c.098-.006.187-.011.265-.014a.76.76 0 0 0 .206-.034.248.248 0 0 0 .137-.107.574.574 0 0 0 .068-.232V.712H1.93c-.6 0-1.005.09-1.214.271-.216.187-.353.545-.411 1.073H0L.186.345h5.798l.186 1.711h-.304c-.058-.528-.192-.886-.401-1.073-.21-.18-.617-.27-1.225-.27h-.567v5.55c.006.102.027.18.063.231a.272.272 0 0 0 .142.107c.059.019.128.03.206.034.078.003.166.008.264.014v.31H1.822v-.31zm26.635 14.937c.574-.318 1.036-.88 1.332-1.478h-.018c-.5.075-.852.524-1.11.935-.056.075-.426.655-.204.543zm9.473-3.778c.13 0 .26.019.26.225 0 .243-.278.486-.518.486-.149 0-.39-.112-.39-.318 0-.28.482-.393.648-.393zm-.795 2.936c0-.034.003-.086.01-.15-.471.475-1.259 1.05-2.342 1.085-.573.037-.777-.449-.777-1.103 0-.692.296-1.796.481-2.506.038-.094.056-.112.075-.206-.389.075-.981-.037-1.314-.13.055.336.092.654.092.897 0 .897-.296 1.814-1.184 2.3-.24.112-.536.224-.759.224-.48 0-.87-.355-1.073-.822-.333.635-.74 1.16-1.332 1.57-.204.15-.907.655-1.203.188-.388-.805 1.222-3.105 2.073-2.45a.656.656 0 0 1 .074.168c.074-.15.13-.3.185-.468.11-.261.5-.205.536.075.074.73.426 1.047.833 1.047.389 0 .833-.299 1.129-.766l-.019.018c.167-.355.24-.748.24-1.177 0-.43-.055-.805-.166-1.197-.24-.262-.518-.71-.37-1.085.074-.187.37-.337.463-.13l.11.26v-.018c.075.169.167.337.241.692.185.131.555.243 1 .243.295 0 .554-.037.758-.075.148.019.296.206.296.337-.13.655-.259 1.328-.425 1.963-.093.356-.13.599-.13.823 0 .505.24.71.574.71.684 0 1.702-.747 2.09-1.346a.408.408 0 0 1 .18-.137.27.27 0 0 1 .19-.087c.186 0 .26.131.26.3 0 .186 0 .373-.02.56-.017.187-.036.356-.036.524 0 .673.26.935.63.935.85 0 2.275-1.197 2.811-2.057.112-.168.39.224.334.3-.963 1.495-2.387 2.28-3.46 2.28-.777 0-1.055-.99-1.055-1.589zm14.08-8.733c-1.054 0-3.83 1.047-4.903 1.683-.018.3-.055.654-.092.935-.074.73-.13 1.365-.13 2.076 1.222-.673 5.533-3.236 5.533-4.451 0-.187-.148-.243-.407-.243zm1.093.224c0 1.31-2.906 3.348-4.534 4.358.833-.206 1.554-.3 2.128-.3 1.924 0 2.776.88 2.776 2.039 0 2.02-2.72 4.9-6.624 5.105-1.166.056-2.184-.449-2.628-1.646l.333-.336.259.205.222.28c.463.45 1.184.768 1.85.768 2.61 0 6.014-3.011 6.014-4.675 0-.599-.481-1.01-1.684-1.01-1.406 0-2.997.374-4.385.71 0 .075-.019.113-.019.206-.037.767-.074 2.281-.61 2.618l-.296-.299c0-.543.074-1.216.166-1.907.037-.206.074-.393.093-.599l-.333-.337.37-.374c.074-.99.148-1.888.296-2.917-.407.393-1.184 1.178-1.184 1.178l-.222-.243c.055-.542 1.128-1.496 1.517-1.74 0-.018 0-.055.018-.111.074-.262.26-.73.463-.73l.148.15c-.018.112-.018.168-.074.337 1.24-.655 3.608-1.646 4.848-1.646.555 0 1.092.243 1.092.916zm8.418 3.61c.204-.711.37-1.44.5-2.17-.111 0-.222.038-.351.056-.075.842-.112 1.197-.149 2.114zm.222-2.75l.352-.037c.111-.86.222-1.851.222-2.917v-.131c-.333.823-.463 1.945-.555 2.824l-.019.261zm9.937 9.762v-.075c.037-.205.037-.018.037-.205-.333.411-.519.879-.352 1.346.056.15.315-.953.315-1.084v.018zm-2.22-10.341a17.385 17.385 0 0 0-.482 3.983c0 .786.056 1.59.185 2.375.648-1.14 1.259-2.637 1.536-4.002.074-.467.148-.972.148-1.515 0-.56-.074-1.066-.222-1.57-.037-.132-.388-1.16-.74-.487a6.345 6.345 0 0 0-.426 1.216zm4.403 9.07c.574-.318 1.036-.88 1.332-1.478h-.018c-.5.075-.851.524-1.11.935-.056.075-.426.655-.204.543zm8.586-.02c.555-.354.906-.878 1.165-1.476-.037.018-.074.037-.11.037-.5.075-.852.71-.982 1.01 0 .037-.018.056-.018.056-.074.168-.222.486-.055.374zm1.184-1.925l-.019-.019c.074.056.111.112.13.168l.166-.43c.093-.187.481-.243.537.019 0 .037.018.093.018.13.13.674.26 1.534 1.073 1.46.778-.057 1.518-.674 1.906-1.235.13-.168.389.168.333.28l.019-.018c-.26.467-1.462 1.664-2.646 1.515-.74-.094-1.018-.486-1.129-.991-.277.58-.61 1.066-1.147 1.44-.259.168-.907.542-1.129.13-.08-.177-.02-.542.125-.941-.438.282-.993.509-1.66.53-.574.037-.777-.449-.777-1.103 0-.692.296-1.796.48-2.506.038-.094.056-.112.075-.206-.389.075-.981-.037-1.314-.13.055.336.092.654.092.897 0 .897-.296 1.814-1.184 2.3-.24.112-.536.224-.759.224-.48 0-.869-.355-1.073-.822-.333.635-.74 1.16-1.332 1.57-.203.15-.907.655-1.203.188-.09-.188-.072-.458.02-.751l-.094.059a6.1 6.1 0 0 0-.795.56 5.568 5.568 0 0 1-.5 2.207c-.148.318-.555.561-.851.262-.167-.168-.203-.411-.203-.673 0-.168.036-.412.11-.599.167-.523.519-1.047.852-1.42 0-1.852-.222-2.638-.481-2.638-.37 0-.851 1.44-.851 3.647 0 .28-.352.393-.537.15-.53-.805-.892-1.729-1.117-2.642-.543.657-1.826 1.815-2.565 1.295a1.094 1.094 0 0 1-.463-.73c-.5.973-1.35 1.908-2.128 1.534-.314-.15-.425-.598-.425-1.103 0-.786.277-1.795.48-2.057.093-.112.574.037.537.206-.037.243-.11.486-.166.71-.13.468-.26.917-.222 1.328.018.3.11.43.222.43.536 0 1.591-1.57 1.739-2.73.056-.187.63-.112.648.056-.056.187-.13.636-.13 1.01 0 .467.074.879.296.972.5.187 1.573-.767 1.999-1.44a.108.108 0 0 1 .042-.038c-.252-1.224-.32-2.482-.301-3.74.026-.849.062-1.736.212-2.594a.199.199 0 0 1-.138.051c-.389.038-.833.038-1.203.038h-.703c-1.314.018-2.61.037-3.923.15-.185 1.365-.536 2.823-1.092 4.058v.392c0 2.039.167 7.985 1.758 9.463.13 0 .167.13.167.224 0 .206-.315.262-.426.262-1.665 0-2.072-6.938-2.128-9.182-.592.879-1.184 1.421-2.09 2.038-.5.356-1.018.617-1.647.617-.74 0-.962-.467-1.073-1.028-.278.56-.722 1.066-1.277 1.477-.222.15-.518.356-.833.356-.37 0-.462-.3-.462-.58 0-.71.721-2.263 1.665-2.263.148 0 .5.131.5.393 0 .15-.297.299-.408.318-.592.15-1.48 1.42-1.017 1.42.037 0 .074-.018.11-.037.593-.355 1.037-.953 1.351-1.589l.111-.28.111-.337c.056-.075.167-.169.296-.169.148 0 .204.075.24.187l.038.45c.037.448.074 1.047.481 1.047 1.055 0 2.368-1.01 2.998-1.796.314-.411.629-.897.87-1.402 0-1.066.055-2.656.147-3.871l-.148.037c-1.091.13-2.368.28-3.441.561-.296.094-.666.206-.962.318h.018l-.11.056c-.112.056-.186.112-.445.15-.13 0-.204-.131-.204-.187 0-.094.037-.131.074-.169 1.536-.841 3.571-1.122 5.274-1.327.11-1.048.407-3.385 1.165-4.04.093-.075.223-.168.278-.168.407 0 .389.879.389 1.234 0 .935-.074 1.833-.185 2.768 1.165-.112 2.275-.187 3.22-.187.684 0 1.812 0 2.553.15.055.028.12.066.15.139.054-.263.12-.522.201-.775l.037-.206c.167-.58.518-1.515 1.092-1.702 1.295-.262 1.462 2.413 1.425 3.048-.111 2.151-.907 4.339-2.073 6.116.148.71.352 1.402.666 2.075.167-1.365.63-3.758 1.74-3.198.444.262.61 2.039.666 2.581v.3l.444-.3c.286-.175.6-.356.904-.6.197-.277.43-.525.668-.693l.038-.053c.076-.073.144-.096.198-.086.248-.115.49-.124.69.03.037.056.055.112.074.168.074-.15.13-.3.185-.468.11-.261.5-.205.536.075.074.73.426 1.047.833 1.047.389 0 .833-.299 1.129-.766l-.019.018c.167-.355.24-.748.24-1.177 0-.43-.055-.805-.166-1.197-.24-.262-.518-.71-.37-1.085.074-.187.37-.337.463-.13l.11.26v-.018c.075.169.167.337.241.692.185.131.555.243 1 .243.295 0 .555-.037.758-.075.148.019.296.206.296.337-.13.655-.259 1.328-.425 1.963-.093.356-.13.599-.13.823 0 .505.24.71.574.71.684 0 1.702-.747 2.09-1.346.125-.149.233-.17.306-.125.207-.096.42-.096.62.05zm-54.622-5.236l-.018.018c-.019.131-.093.3-.26.3-.129 0-.24-.113-.24-.225 0-.037 0-.075.037-.187l-.018.037c0-.056.018-.093.018-.15a.795.795 0 0 0 .019-.242c0-1.44-.925-2.057-2.091-2.057-.888 0-1.887.336-2.776.935-1.22.823-2.183 2.132-2.183 3.497 0 1.328.925 2.73 3.46 3.833h-.018c.074.02.185.094.259.113.758.317 2.498 1.065 2.387 1.739-.019.037-.019.056-.019.075l-.074.224a3.564 3.564 0 0 1-.259.28c-.666.561-1.647.86-2.498.86-1.702 0-3.534-.953-3.534-2.88 0-.055 0-.112.018-.149.019-.168.075-.355.315-.355.185 0 .24.112.296.262.019.056.037.15.037.224 0 .037.019.019.019.056.351 1.384 1.61 2.17 3.053 2.17.758 0 1.424-.188 1.998-.749-.093-.187-.74-.486-1.055-.635h.019c-.037 0-.093-.038-.111-.038l-.5-.224C22.294 20.146 20 19.136 20 16.162c0-2.823 2.886-5.068 5.606-5.068 1.48 0 2.739.954 2.739 2.544 0 .243-.074.505-.13.767zm-11.855-.537c0 .256.038.44.113.555a.57.57 0 0 0 .498.28.575.575 0 0 0 .442-.206c.125-.138.187-.343.187-.616 0-.279-.06-.484-.179-.617a.575.575 0 0 0-.875.007c-.124.138-.186.336-.186.597zm.005 1.087H16V12h.391v1.054a.797.797 0 0 1 .632-.286c.142 0 .276.026.403.079.127.053.23.128.312.223.082.096.146.212.192.347.047.135.07.28.07.434 0 .366-.098.65-.293.849-.195.2-.43.3-.702.3a.751.751 0 0 1-.64-.315v.27zm1.829 1.002l-.042-.335a.859.859 0 0 0 .212.032.417.417 0 0 0 .198-.04.334.334 0 0 0 .121-.113c.024-.036.062-.126.114-.27.007-.02.017-.05.033-.088L18 13h.396l.456 1.233c.06.156.112.32.16.493.042-.162.093-.323.152-.48L19.63 13H20l-.826 2.173c-.09.234-.16.394-.209.483a.725.725 0 0 1-.226.26.548.548 0 0 1-.306.084.777.777 0 0 1-.24-.043z"/>
</svg>
