<svg xmlns="http://www.w3.org/2000/svg" width="206" height="32" viewBox="0 0 206 32">
    <g fill="#FFF" fill-rule="evenodd">
        <path d="M198.297 22.634c.81 0 1.488-.217 2.035-.651.547-.435.983-.98 1.31-1.635a7.759 7.759 0 0 0 .692-2.147c.135-.776.203-1.514.203-2.212 0-.67-.064-1.392-.192-2.169a7.663 7.663 0 0 0-.682-2.157 4.601 4.601 0 0 0-1.342-1.646c-.568-.434-1.285-.651-2.152-.651-.823 0-1.505.214-2.045.641-.54.427-.97.968-1.288 1.624a7.995 7.995 0 0 0-.683 2.147 12.944 12.944 0 0 0-.202 2.211c0 .67.064 1.393.192 2.169a7.88 7.88 0 0 0 .67 2.158c.32.662.761 1.214 1.322 1.656.561.442 1.282.662 2.162.662zm-.215-14.049c1.068 0 2.045.185 2.933.555.887.37 1.645.885 2.273 1.547a7.02 7.02 0 0 1 1.46 2.347c.347.903.52 1.895.52 2.977 0 1.01-.173 1.963-.52 2.859a7.194 7.194 0 0 1-1.471 2.357 6.93 6.93 0 0 1-2.284 1.6c-.887.392-1.88.588-2.976.588a7.55 7.55 0 0 1-2.826-.523 6.807 6.807 0 0 1-2.283-1.483 6.839 6.839 0 0 1-1.527-2.305c-.368-.896-.552-1.891-.552-2.987 0-1.067.174-2.06.52-2.976a7.117 7.117 0 0 1 1.472-2.39 6.772 6.772 0 0 1 2.294-1.59c.895-.384 1.884-.576 2.967-.576zm-20.13 1.066c-.216.014-.41.021-.582.021s-.322.025-.451.074a.663.663 0 0 0-.312.243c-.08.112-.126.282-.14.506v11.379c.014.225.06.394.14.506a.66.66 0 0 0 .312.243c.129.05.28.077.451.085.172.006.366.017.581.031v.676h-5.572v-.676c.215-.014.413-.025.592-.031a1.47 1.47 0 0 0 .462-.085c.13-.049.23-.13.302-.243.071-.112.122-.281.15-.506V10.327h-.043l-4.464 12.412h-1.355l-4.529-12.687h-.043v11.822c.015.225.061.394.14.506a.66.66 0 0 0 .312.243c.129.05.28.077.451.085.173.006.366.017.581.031v.676h-3.764v-.676c.211-.014.401-.025.574-.031.168-.008.315-.035.444-.085a.605.605 0 0 0 .298-.243c.068-.112.118-.281.147-.506V10.495c-.03-.224-.08-.394-.147-.506a.608.608 0 0 0-.298-.243 1.238 1.238 0 0 0-.444-.074c-.173 0-.363-.007-.574-.02v-.676h4.453l3.959 11.061 3.958-11.061h4.41v.675zm-30.05 0a9.04 9.04 0 0 1-.571.021c-.17 0-.318.025-.445.074a.654.654 0 0 0-.307.243c-.077.112-.123.282-.138.506v11.379c.015.225.06.394.138.506.078.113.18.194.307.243.127.05.275.077.445.085.17.006.36.017.571.031v.676h-5.463v-.676c.208-.014.4-.025.575-.031.173-.008.322-.035.449-.085a.598.598 0 0 0 .293-.243c.067-.112.116-.281.145-.506V10.495c-.029-.224-.078-.394-.145-.506a.601.601 0 0 0-.293-.243 1.235 1.235 0 0 0-.449-.074c-.176 0-.367-.007-.575-.02v-.676h5.463v.675zM119.935 22.74c.217-.014.412-.025.585-.031.174-.008.325-.032.456-.074a.549.549 0 0 0 .303-.233c.073-.112.123-.28.152-.506V9.778h-1.258c-1.33 0-2.226.197-2.688.591-.477.408-.78 1.189-.91 2.343h-.673l.413-3.736h12.834l.412 3.736h-.673c-.13-1.154-.426-1.935-.888-2.343-.463-.394-1.366-.591-2.71-.591h-1.257v12.117c.014.225.06.394.14.506.08.113.185.19.315.233.13.042.282.066.455.074.173.006.369.017.585.031v.676h-5.593v-.676zm-21.614-8.032c.596.227 1.176.462 1.742.707a6.917 6.917 0 0 1 1.502.863c.436.334.788.731 1.057 1.193.268.465.402 1.03.402 1.697 0 .71-.148 1.336-.446 1.868a4.04 4.04 0 0 1-1.176 1.325 5.37 5.37 0 0 1-1.655.788 6.699 6.699 0 0 1-1.861.267c-.74 0-1.459-.12-2.156-.363a3.74 3.74 0 0 1-.773-.383c-.268-.17-.504-.277-.708-.32a.436.436 0 0 0-.293.054.653.653 0 0 0-.207.212.881.881 0 0 0-.12.31c-.022.113-.04.213-.054.298H92.9l.021-5.07h.763c.087.624.217 1.21.391 1.757.174.546.421 1.019.74 1.416.32.398.715.71 1.187.938.472.227 1.035.341 1.688.341.406 0 .783-.06 1.132-.181.349-.12.653-.291.914-.511.262-.22.465-.487.61-.8.145-.312.218-.667.218-1.065 0-.454-.106-.842-.316-1.161-.21-.32-.479-.586-.805-.799a5.675 5.675 0 0 0-1.078-.544c-.392-.149-.763-.28-1.11-.394a22.531 22.531 0 0 1-1.645-.65 6.045 6.045 0 0 1-1.404-.852 3.827 3.827 0 0 1-.969-1.182c-.24-.455-.359-1.009-.359-1.662 0-.71.13-1.332.392-1.865a3.709 3.709 0 0 1 1.067-1.32 4.61 4.61 0 0 1 1.557-.778 6.58 6.58 0 0 1 1.84-.256 6.79 6.79 0 0 1 3.331.83c.086.044.17.047.25.011a.709.709 0 0 0 .229-.17c.072-.078.134-.163.185-.255l.12-.224h.696l-.043 4.709h-.763a9.508 9.508 0 0 0-.337-1.64 3.946 3.946 0 0 0-.653-1.29 2.933 2.933 0 0 0-1.078-.852c-.435-.206-.965-.31-1.59-.31-.391 0-.754.06-1.088.182-.334.12-.628.29-.882.511a2.378 2.378 0 0 0-.816 1.825c0 .426.094.789.283 1.09.188.3.428.554.718.768.29.213.613.394.969.543.356.149.708.281 1.056.394zM79.61 19.073l-.276 4.342H67.512v-.675c.212-.014.403-.025.572-.031a1.38 1.38 0 0 0 .445-.085.595.595 0 0 0 .297-.242c.07-.112.12-.28.148-.506V10.493c-.028-.224-.077-.393-.148-.506a.544.544 0 0 0-.297-.231 1.629 1.629 0 0 0-.445-.074c-.169-.007-.36-.018-.572-.032v-.674H78.53a191.857 191.857 0 0 0 .212 3.731h-.657c-.127-1.153-.417-1.933-.868-2.34-.48-.407-1.363-.611-2.649-.611h-3.05v5.733h2.394c.24 0 .427-.021.56-.063a.524.524 0 0 0 .297-.211c.064-.098.11-.225.139-.38.027-.154.063-.337.105-.547l.212-1.054h.487v5.29h-.487l-.212-.927c-.042-.21-.08-.394-.116-.548a1.172 1.172 0 0 0-.149-.38.52.52 0 0 0-.285-.21 1.835 1.835 0 0 0-.551-.063h-2.394v6.218h4.703c.494 0 .9-.102 1.219-.305a2.29 2.29 0 0 0 .762-.812 4.05 4.05 0 0 0 .424-1.138c.092-.422.159-.85.2-1.286h.785zm-34.602 3.666c.217-.014.412-.025.586-.031.173-.008.325-.032.455-.074a.549.549 0 0 0 .303-.233c.073-.112.123-.28.152-.506V9.778h-1.257c-1.33 0-2.226.197-2.688.591-.478.408-.781 1.189-.91 2.343h-.673l.412-3.736h12.834l.412 3.736h-.672c-.13-1.154-.427-1.935-.89-2.343-.461-.394-1.365-.591-2.71-.591h-1.256v12.117c.014.225.06.394.14.506.08.113.185.19.315.233.13.042.282.066.455.074.173.006.369.017.586.031v.676h-5.594v-.676zM5.017 4.289l.152-.013c2.4-.187 4.863-.374 7.264-.561.761-1.25 1.534-2.49 2.342-3.702a15.649 15.649 0 0 0-9.758 4.276zm-3.02 19.494c1.208-3.26 2.836-6.327 4.465-9.342 1.662-2.994 3.262-6.112 5.047-9.105-2.679.187-5.358.41-8.037.64A16.07 16.07 0 0 0 0 15.99a16.1 16.1 0 0 0 1.997 7.794zm29.433-5.375C30.28 26.103 23.722 32 15.805 32c-3.28 0-6.327-1.012-8.852-2.745.293-.38.578-.77.863-1.158 4.196-5.715 6.356-9.557 12.51-16.78.541-.634 1.233-1.313 1.822-1.622l.122-.012c.024.248-.074.509-.167.831-.369 1.29-.928 2.536-1.426 3.776-.548 1.371-1.1 2.68-1.654 3.988a76.066 76.066 0 0 1-3.919 7.408c-.166.205-.142.453-.062.633.08.18.152.298.287.41.19.044.38.088.496.013a.557.557 0 0 0 .41-.229c.056-.068.173-.142.228-.21l4.83-6.31c.172-.142.337-.346.509-.488.38-.54.822-1.085 1.276-1.506 0 0 .166-.205.393-.416.061-.006.061-.006.116-.074.399-.353 1.043-.73 1.428-.58l-.061.005c.257.1.281.348.293.472.012.125-.037.255-.086.385-.043.192-.08.446-.123.639-.05.13-.16.266-.148.39-.344.912-.817 1.774-1.29 2.636-.363.725-1.124 1.803-.795 2.648.08.18.214.292.349.404.679.621 1.954-.258 2.696-.896.454-.421.97-.848 1.307-1.195.11-.137.22-.273.337-.347 1.258-1.266 2.608-2.455 3.936-3.662zM26.225 3.952a16.06 16.06 0 0 1 5.38 12.422.913.913 0 0 0-.495.26c-1.355 1.326-2.84 2.601-4.257 3.933l-2.202 2.162c.836-1.587 1.843-3.316 2.035-5.153.161-.893-.052-1.812-.952-2.16-.96-.343-2.033.077-2.775.715-.81.582-1.417 1.332-2.03 2.02l-.498.613c.51-1.116.959-2.226 1.469-3.342.344-.912.744-1.891 1.088-2.803.35-.85.695-1.761.8-2.586.143-1.08-.315-1.974-1.424-1.926-.863.023-1.777.804-2.335 1.423-.57.496-1.013 1.041-1.455 1.587-.558.62-1.188 1.294-1.668 1.92-2.874 3.75-5.484 7.704-8.47 11.591a67.736 67.736 0 0 1-2.097 2.845c-.212.272-.424.55-.639.827a16.025 16.025 0 0 1-2.652-2.859 39.075 39.075 0 0 1 1.32-3.455c1.54-3.43 3.386-6.672 5.172-9.977a244.273 244.273 0 0 1 3.816-6.86c3.94-.312 7.88-.561 11.819-1.06.35-.042.7-.088 1.05-.137zm4.484 11.86h-.2v-.238c0-.09-.03-.123-.136-.123h-.183v.362h-.205v-.925h.467c.173 0 .278.106.278.266 0 .117-.052.18-.126.212.074.032.105.075.105.181v.266zm-.283-.754c.084 0 .12.043.12.117 0 .07-.036.112-.126.112h-.23v-.229h.236zm.734.34a.838.838 0 0 1-.834.845.843.843 0 0 1-.84-.845c0-.468.378-.845.84-.845.462 0 .834.377.834.845zm.173 0c0-.563-.45-1.02-1.007-1.02a1.01 1.01 0 0 0-1.002 1.02c0 .564.446 1.015 1.002 1.015a1.01 1.01 0 0 0 1.007-1.015zM16.635 0a15.581 15.581 0 0 1 7.853 2.61c-2.353.272-4.722.449-7.07.669-1.046.062-2.03.187-3.077.249A80.562 80.562 0 0 1 16.635 0z"/>
    </g>
</svg>
