<svg xmlns="http://www.w3.org/2000/svg" width="78" height="78" viewBox="0 0 78 78">
    <path fill="#1E201E" fill-rule="evenodd" d="M12.38 10.454l.375-.03c5.924-.457 12-.913 17.924-1.369 1.879-3.047 3.786-6.067 5.779-9.024C27.172.63 18.772 4.48 12.381 10.454zM4.929 57.971c2.98-7.948 6.999-15.423 11.017-22.772 4.101-7.296 8.05-14.896 12.456-22.192-6.611.456-13.222.998-19.833 1.562A38.87 38.87 0 0 0 0 38.973c0 6.898 1.79 13.376 4.928 18.998zm72.63-13.101C74.715 63.626 58.535 78 39 78a38.794 38.794 0 0 1-21.844-6.692c.723-.927 1.428-1.876 2.131-2.822 10.354-13.93 15.685-23.295 30.87-40.899 1.334-1.548 3.042-3.201 4.494-3.955l.303-.03c.06.605-.184 1.24-.412 2.026-.911 3.144-2.291 6.182-3.52 9.205-1.35 3.34-2.716 6.53-4.08 9.72-2.897 6.24-6.126 12.21-9.671 18.058-.41.498-.35 1.103-.154 1.542.196.44.377.726.708 1 .47.106.937.213 1.225.031.453-.044.74-.225 1.013-.558.137-.166.424-.347.56-.513l11.919-15.378c.424-.347.832-.846 1.256-1.193.94-1.314 2.03-2.644 3.15-3.67 0 0 .409-.499.968-1.012.152-.015.152-.015.288-.181.983-.86 2.572-1.78 3.524-1.416l-.152.014c.635.244.695.849.724 1.151.03.303-.091.62-.213.937-.106.47-.198 1.089-.305 1.558-.12.317-.394.65-.364.952-.85 2.222-2.017 4.322-3.184 6.423-.894 1.768-2.772 4.397-1.96 6.455.196.439.529.712.86.985 1.676 1.515 4.823-.628 6.654-2.183 1.12-1.027 2.391-2.069 3.224-2.914.272-.333.545-.665.833-.846 3.104-3.084 6.435-5.982 9.712-8.925zM64.712 9.633C72.857 16.785 78 27.278 78 38.973c0 .314-.005.626-.012.938-.458.071-.88.302-1.22.634-3.346 3.231-7.008 6.341-10.505 9.588l-5.434 5.27c2.062-3.87 4.547-8.085 5.022-12.561.396-2.177-.129-4.417-2.35-5.267-2.371-.835-5.017.19-6.849 1.744-1.997 1.418-3.496 3.246-5.01 4.923l-1.227 1.495c1.26-2.72 2.366-5.426 3.625-8.146.85-2.222 1.836-4.61 2.686-6.832.865-2.071 1.714-4.293 1.975-6.304.351-2.631-.779-4.811-3.515-4.694-2.13.057-4.386 1.96-5.763 3.47-1.408 1.207-2.498 2.537-3.589 3.866-1.377 1.51-2.932 3.154-4.118 4.682-7.09 9.14-13.53 18.778-20.9 28.253a165.238 165.238 0 0 1-5.174 6.934c-.524.661-1.047 1.34-1.577 2.015a39.251 39.251 0 0 1-6.544-6.968 94.532 94.532 0 0 1 3.26-8.422c3.797-8.36 8.354-16.264 12.759-24.32 3.038-5.624 6.227-11.248 9.417-16.72 9.721-.76 19.443-1.368 29.164-2.584.864-.103 1.728-.215 2.592-.334zm11.064 28.91h-.492v-.582c0-.22-.077-.298-.337-.298h-.453v.88h-.505V36.29h1.153c.427 0 .686.26.686.648 0 .285-.13.44-.31.518.18.078.258.182.258.44v.649zm-.699-1.839c.207 0 .298.104.298.285 0 .169-.09.272-.31.272h-.57v-.557h.582zm1.813.83c0 1.14-.92 2.06-2.059 2.06-1.14 0-2.072-.92-2.072-2.06 0-1.141.933-2.06 2.072-2.06 1.14 0 2.059.919 2.059 2.06zm.427 0a2.487 2.487 0 0 0-2.486-2.488 2.476 2.476 0 0 0-2.473 2.487c0 1.374 1.1 2.475 2.473 2.475a2.476 2.476 0 0 0 2.486-2.475zM41.049 0a38.768 38.768 0 0 1 19.377 6.362c-5.806.664-11.65 1.094-17.444 1.63-2.582.151-5.012.455-7.594.607A196.13 196.13 0 0 1 41.049 0z"/>
</svg>
